<?xml version="1.0" standalone="no"?><!DOCTYPE svg PUBLIC "-//W3C//DTD SVG 1.1//EN"
        "http://www.w3.org/Graphics/SVG/1.1/DTD/svg11.dtd">
<svg width="15" height="15" viewBox="0 0 200 200" version="1.1" xmlns="http://www.w3.org/2000/svg"
     xmlns:xlink="http://www.w3.org/1999/xlink">
    <defs>
        <style type="text/css"><![CDATA[
@font-face { font-family: ifont; src: url(http://at.alicdn.com/t/font_1442373896_4754455.eot?#iefix) format(embedded-opentype), url(http://at.alicdn.com/t/font_1442373896_4754455.woff) format(woff), url(http://at.alicdn.com/t/font_1442373896_4754455.ttf) format(truetype), url(http://at.alicdn.com/t/font_1442373896_4754455.svg#ifont) format(svg); }

]]></style>
    </defs>
    <g class="transform-group">
        <g transform="scale(0.1953125, 0.1953125)">
            <path d="M815.09511 176.639023c0 30.308283 0.520863 59.816341-0.12689 89.297792-0.87902 39.974433-8.471952 78.732156-23.576975 115.89659-11.150968 27.434839-25.767873 52.978609-44.441165 75.837222-11.405771 13.963013-24.546046 26.624381-37.753859 38.963407-9.995655 9.338692-21.330818 17.244756-31.821753 25.590841 8.137331 6.256494 17.373693 12.527314 25.623587 19.901259 11.57564 10.347672 23.11137 20.903076 33.379225 32.507368 10.392698 11.745509 19.857257 24.448832 28.600385 37.487799 19.614733 29.252231 32.95353 61.410652 40.759309 95.700619 3.292999 14.465456 6.172583 29.235858 7.04444 43.99705 1.62194 27.437909 1.651616 54.969962 2.297322 82.464153 0.118704 5.068436 0.017396 10.140964 0.017396 15.693424 14.603603 0 28.733415 0.51677 42.812061-0.119727 21.934568-0.991584 38.990013 18.156522 37.902238 39.847543-0.899486 17.925255-12.785188 34.134425-31.969109 36.004005-4.015454 0.390903-8.040117 0.971118-12.060687 0.972141-223.743854 0.047072-447.487707 0.039909-671.230538 0.045025-21.165042 0.001023-35.913954-11.622712-39.421848-31.483038-4.02671-22.803355 10.908444-45.38056 36.19127-45.278229 15.851013 0.064468 31.703049 0.01228 48.355311 0.01228 0-1.976004 0-3.76372 0-5.551436 0-24.045649-0.166799-48.092321 0.045025-72.136947 0.230244-26.130124 4.65502-51.658544 11.675924-76.79299 6.315846-22.610974 14.746866-44.456514 26.431999-64.72821 8.982582-15.582907 19.479657-30.371728 30.216185-44.836161 7.313569-9.853415 15.727193-19.022239 24.49795-27.631314 13.302981-13.057387 27.619034-25.01779 43.556005-34.869159 0.560772-0.346901 1.014096-0.867764 0.867764-0.740874-11.67183-9.460466-23.568788-18.707061-35.025725-28.472472-25.226544-21.50171-45.039799-47.422056-61.373813-76.148307-16.720823-29.405727-28.792767-60.528562-34.736129-93.878111-2.112104-11.848862-4.406356-23.795962-4.929266-35.771715-1.031493-23.607674-0.950651-47.26549-1.200338-70.903863-0.141216-13.43294-0.025583-26.868951-0.025583-40.878013-15.532765 0-30.65416 0.137123-45.77044-0.090051-4.118807-0.061398-8.312316-0.874927-12.314467-1.935072-14.208607-3.76679-22.301935-13.762445-25.590841-27.452235-4.046153-16.839527 2.4017-33.338293 17.067724-42.247196 4.637624-2.817162 10.627035-4.812609 15.999392-4.818749 229.200122-0.234337 458.399221-0.267083 687.599344-0.038886 13.658068 0.013303 23.524786 8.231475 29.509081 20.230764 7.704472 15.448854 4.149507 35.402301-8.478092 46.682205-7.259334 6.483668-15.810081 9.376555-25.208125 9.586332C844.210217 176.87336 829.921793 176.639023 815.09511 176.639023zM740.40092 849.759607c0-26.428929 0.279363-52.278667-0.140193-78.117149-0.162706-10.036587-1.523703-20.103874-3.001357-30.058596-3.255137-21.932522-10.42442-42.72201-20.055778-62.606897-7.224542-14.915711-16.132422-28.79379-26.315342-41.97909-12.894681-16.698311-27.903513-31.049157-44.837184-43.394323-21.376866-15.58393-44.87607-27.025517-70.515007-33.734312-20.221554-5.291516-32.705889-23.796986-28.640294-45.680389 2.587941-13.928221 13.656021-26.221198 27.433816-29.551036 18.947538-4.579295 36.793998-12.05864 53.446259-22.073738 23.212678-13.960966 43.816948-31.011294 60.819181-52.359508 16.614399-20.86112 29.482475-43.689035 38.552038-68.727291 10.172687-28.083615 14.176884-57.171094 14.257725-86.895069 0.064468-24.046672 0.013303-48.093345 0.013303-72.138994 0-1.812275 0-3.624551 0-5.432733-147.685597 0-294.748001 0-441.053158 0 0 35.759435-0.427742 71.154573 0.243547 106.529245 0.220011 11.597129 2.464121 23.343661 5.235235 34.665521 5.498224 22.461571 14.426571 43.617403 26.044166 63.71923 13.94971 24.133653 32.19526 44.564985 53.499471 62.1065 21.060665 17.340947 45.000913 29.858028 71.199599 37.934984 9.993608 3.081175 20.129456 5.580089 27.801183 14.040784 12.365632 13.636578 12.391215 38.850843-0.151449 52.116985-6.830569 7.224542-15.169491 10.298554-24.343431 13.001105-27.031657 7.962346-51.613518 20.756743-73.619718 38.569434-17.306154 14.008039-32.431643 29.898961-45.165666 48.158836-15.049764 21.580504-26.062586 45.059242-33.114189 70.337975-4.727675 16.950044-8.197706 34.256198-8.53028 51.885717-0.466628 24.720008-0.11768 49.455365-0.11768 74.18356 0 1.804089 0 3.608178 0 5.502317C446.971961 849.759607 593.913615 849.759607 740.40092 849.759607zM393.476583 361.028567c83.439364 0 166.271908 0 249.411443 0-1.665942 14.795984-9.816576 25.524327-20.594037 34.714639-0.64673 0.551562-1.289366 1.109264-1.898233 1.700735-11.473309 11.123338-22.638603 22.589484-34.493605 33.290197-13.074783 11.802814-24.628934 24.750707-34.31248 39.46585-6.603395 10.033517-8.856715 21.593807-11.484565 32.844036-3.62762 15.532765-6.196119 31.340799-5.423523 47.480384 1.215688 25.406646 10.289344 46.821375 30.816866 62.768579 4.66116 3.621481 8.807596 7.915273 13.114692 11.979846 18.749016 17.690918 37.944194 34.94386 56.078203 53.245691 20.995173 21.188578 36.849256 45.849234 45.506427 74.731028 3.626597 12.098549 5.726421 24.423249 5.988388 37.065174 0.062422 2.995217 0.462534 5.982248 0.730641 9.245572-112.25669 0-224.555335 0-338.082972 0 0.967024-10.419304 1.252527-20.697391 3.004427-30.719652 2.768043-15.832594 8.04728-30.92943 15.791661-45.127803 7.081279-12.982686 15.144932-25.27464 25.157983-36.160571 8.623401-9.374508 17.252943-18.801205 26.548656-27.489074 16.902972-15.798824 34.30941-31.057343 51.490721-46.559409C486.782665 599.107917 497.683946 582.082148 500.042667 560.089251c1.617847-15.08251 1.308809-29.950126-2.13564-44.690852-2.726088-11.666714-5.474688-23.347754-8.844435-34.837436-2.964518-10.110265-8.855692-18.816554-16.109909-26.320459-13.440104-13.901615-27.221991-27.474748-40.980343-41.065278-9.063423-8.952906-18.585287-17.455557-27.428699-26.615171C397.931035 379.711068 393.288295 371.611599 393.476583 361.028567z"
                  fill="#ffffff"></path>
        </g>
    </g>
</svg>